<svg xmlns="http://www.w3.org/2000/svg" width="400" height="275" viewBox="0 0 400 275"><rect width="100%" height="100%" fill="#0a0a1a"/><path fill="#0ff" d="M91.885 128.1h3.09v18.8h-1.8q-.41 0-.69-.14-.28-.13-.54-.46l-9.82-12.53q.08.86.08 1.59v11.54h-3.08v-18.8h1.83q.22 0 .38.02.17.02.29.08t.24.17.26.29l9.86 12.58q-.04-.45-.07-.89t-.03-.82zm19.13 2.78h-8.35v5.22h6.58v2.69h-6.58v5.31h8.35v2.8h-11.86v-18.8h11.86zm21.02 6.62q0 2.07-.68 3.83-.69 1.76-1.93 3.05-1.25 1.28-3.01 2.01-1.75.72-3.9.72-2.13 0-3.88-.72-1.76-.73-3.01-2.01-1.26-1.29-1.95-3.05t-.69-3.83.69-3.83 1.95-3.05q1.25-1.28 3.01-2 1.75-.73 3.88-.73 1.43 0 2.69.34 1.26.33 2.32.93 1.05.61 1.89 1.47t1.42 1.93q.59 1.07.89 2.31.31 1.25.31 2.63m-3.58 0q0-1.55-.41-2.77-.42-1.23-1.19-2.09-.76-.86-1.86-1.31-1.1-.46-2.48-.46t-2.47.46q-1.1.45-1.88 1.31-.77.86-1.19 2.09-.41 1.22-.41 2.77t.41 2.78q.42 1.22 1.19 2.08.78.85 1.88 1.3 1.09.46 2.47.46t2.48-.46q1.1-.45 1.86-1.3.77-.86 1.19-2.08.41-1.23.41-2.78m23.35 0q0 2.07-.69 3.8t-1.93 2.97q-1.25 1.25-3.01 1.94-1.75.69-3.9.69h-7.16v-18.8h7.16q2.15 0 3.9.7 1.76.69 3.01 1.93 1.24 1.25 1.93 2.97.69 1.73.69 3.8m-3.59 0q0-1.55-.41-2.77-.41-1.23-1.18-2.08-.77-.86-1.87-1.31-1.1-.46-2.48-.46h-3.65v13.24h3.65q1.38 0 2.48-.46 1.1-.45 1.87-1.3.77-.86 1.18-2.08.41-1.23.41-2.78m10.17-.45h2.18q.99 0 1.73-.25.73-.25 1.2-.68.48-.44.71-1.04.24-.6.24-1.31 0-1.43-.95-2.2-.94-.76-2.87-.76h-2.24zm6.47 2.91 4.71 6.94h-3.16q-.9 0-1.3-.7l-3.95-6.02q-.22-.34-.49-.48-.27-.15-.79-.15h-1.49v7.35h-3.5v-18.8h5.74q1.91 0 3.28.4 1.37.39 2.25 1.11.87.71 1.29 1.71.42.99.42 2.19 0 .95-.28 1.79-.28.85-.81 1.54t-1.3 1.21-1.76.82q.34.19.62.46.29.26.52.63m10.7-.16h5.98l-2.29-6.25q-.16-.42-.35-.99-.18-.57-.36-1.23-.17.66-.35 1.24t-.35 1zm4.77-11.7 7.39 18.8h-2.71q-.45 0-.74-.23-.28-.23-.43-.56l-1.4-3.84h-7.79l-1.4 3.84q-.11.3-.4.54-.3.25-.75.25h-2.73l7.4-18.8zm21.19 2.78h-8.34v5.57h7.04v2.79h-7.04v7.66h-3.51v-18.8h11.85zm15.99-2.78v2.87h-5.66v15.93h-3.5v-15.93h-5.67v-2.87zm19.67 1.77-.87 1.65q-.15.27-.33.4-.18.12-.44.12-.27 0-.59-.2t-.76-.45-1.03-.45-1.4-.2q-.73 0-1.27.18-.55.17-.92.48-.37.32-.55.75-.18.44-.18.96 0 .66.37 1.1t.98.76q.61.31 1.39.55.78.25 1.6.53t1.6.65 1.39.94q.61.56.98 1.38t.37 1.99q0 1.27-.44 2.39-.43 1.11-1.27 1.93-.84.83-2.05 1.3-1.21.48-2.77.48-.89 0-1.76-.18-.87-.17-1.67-.5-.8-.32-1.51-.78-.7-.45-1.24-1.01l1.02-1.68q.13-.18.34-.3.21-.13.44-.13.33 0 .71.27.37.26.89.59.52.32 1.22.59.69.27 1.67.27 1.49 0 2.31-.71t.82-2.04q0-.74-.37-1.2-.37-.47-.98-.79t-1.39-.54-1.59-.48q-.8-.26-1.58-.63-.78-.36-1.39-.94-.62-.59-.99-1.47-.37-.87-.37-2.16 0-1.03.41-2 .41-.98 1.19-1.73.78-.76 1.93-1.21 1.14-.46 2.62-.46 1.67 0 3.07.52t2.39 1.46m16.51-1.77v2.87h-5.67v15.93h-3.49v-15.93h-5.67v-2.87zm10.04 15.98q1.01 0 1.81-.34t1.35-.95q.54-.61.84-1.48.29-.87.29-1.95V128.1h3.5v11.26q0 1.68-.54 3.1t-1.55 2.46q-1.01 1.03-2.45 1.61t-3.25.58q-1.82 0-3.26-.58-1.45-.58-2.46-1.61-1-1.04-1.54-2.46t-.54-3.1V128.1h3.5v11.25q0 1.08.29 1.95t.84 1.49q.56.61 1.35.95.8.34 1.82.34m28.43-6.58q0 2.07-.69 3.8t-1.94 2.97q-1.24 1.25-3 1.94-1.75.69-3.9.69h-7.16v-18.8h7.16q2.15 0 3.9.7 1.76.69 3 1.93 1.25 1.25 1.94 2.97.69 1.73.69 3.8m-3.59 0q0-1.55-.41-2.77-.41-1.23-1.18-2.08-.77-.86-1.87-1.31-1.1-.46-2.48-.46h-3.65v13.24h3.65q1.38 0 2.48-.46 1.1-.45 1.87-1.3.77-.86 1.18-2.08.41-1.23.41-2.78m10.18-9.4v18.8h-3.51v-18.8zm22.13 9.4q0 2.07-.69 3.83-.68 1.76-1.93 3.05-1.24 1.28-3 2.01-1.75.72-3.9.72-2.13 0-3.89-.72-1.75-.73-3.01-2.01-1.25-1.29-1.94-3.05t-.69-3.83.69-3.83 1.94-3.05q1.26-1.28 3.01-2 1.76-.73 3.89-.73 1.43 0 2.69.34 1.26.33 2.32.93 1.05.61 1.89 1.47t1.42 1.93q.59 1.07.89 2.31.31 1.25.31 2.63m-3.58 0q0-1.55-.41-2.77-.42-1.23-1.19-2.09-.76-.86-1.86-1.31-1.1-.46-2.48-.46t-2.48.46q-1.09.45-1.87 1.31-.77.86-1.19 2.09-.41 1.22-.41 2.77t.41 2.78q.42 1.22 1.19 2.08.78.85 1.87 1.3 1.1.46 2.48.46t2.48-.46q1.1-.45 1.86-1.3.77-.86 1.19-2.08.41-1.23.41-2.78"/></svg>